<?xml version="1.0" standalone="no"?>
<!DOCTYPE svg PUBLIC "-//W3C//DTD SVG 20010904//EN"
    "http://www.w3.org/TR/2001/REC-SVG-20010904/DTD/svg10.dtd">
<svg version="1.0" xmlns="http://www.w3.org/2000/svg"
     width="64" height="64" viewBox="0 0 736 771"
     preserveAspectRatio="xMidYMid meet">

    <g transform="translate(0.000000,771.000000) scale(0.087, -0.087)"
       fill="#000000" stroke="none">
        <path d="M3465 7353 c-548 -44 -1001 -173 -1439 -408 -791 -427 -1386 -1134
-1674 -1990 -79 -234 -132 -488 -162 -767 -13 -127 -13 -524 1 -664 93 -965
575 -1840 1340 -2436 682 -531 1556 -796 2405 -728 862 69 1628 422 2228 1025
576 580 926 1326 1006 2144 13 134 13 504 0 651 -89 977 -600 1891 -1387 2477
-463 346 -962 559 -1539 658 -205 35 -589 54 -779 38z m580 -379 c1382 -156
2508 -1229 2734 -2604 63 -380 52 -811 -29 -1185 -91 -417 -275 -828 -528
-1175 -80 -110 -224 -281 -286 -339 l-36 -35 0 27 0 27 -232 2 -233 3 -3 2036
-2 2036 -325 274 c-179 151 -332 275 -340 277 -9 2 -158 -48 -333 -112 -174
-63 -623 -226 -997 -361 -374 -135 -725 -263 -780 -283 l-100 -37 -3 -98 c-2
-66 1 -97 8 -97 10 0 455 144 605 195 22 8 216 71 430 140 616 200 908 295
933 306 13 5 25 9 27 9 3 0 5 -1030 5 -2290 l0 -2290 538 0 537 -1 -35 -30
c-109 -93 -391 -267 -570 -351 -432 -204 -863 -301 -1345 -301 -348 0 -626 41
-945 140 -414 127 -853 379 -1172 672 l-58 53 0 1448 c0 797 4 1451 8 1454 8
5 222 74 872 281 470 150 773 247 788 252 9 4 12 -361 12 -1806 l0 -1811 430
0 c403 0 430 1 431 18 4 76 3 3480 -1 3560 l-5 104 -285 168 c-157 93 -292
169 -301 170 -8 0 -137 -42 -285 -94 -148 -52 -510 -179 -804 -281 -294 -103
-672 -235 -840 -293 l-305 -107 -5 -1370 -5 -1369 -67 89 c-287 387 -487 860
-568 1350 -62 373 -51 807 30 1180 103 472 324 932 633 1315 91 112 358 376
477 470 503 399 1104 633 1745 680 149 10 409 3 580 -16z"/>
        <path d="M2740 4510 c-63 -21 -293 -97 -510 -168 l-395 -129 -3 -228 c-1 -126
1 -232 5 -236 6 -6 902 225 1036 267 16 5 17 27 17 270 0 245 -1 264 -17 263
-10 0 -70 -18 -133 -39z"/>
        <path d="M2585 3595 c-154 -40 -381 -98 -505 -129 -124 -32 -231 -59 -237 -61
-10 -3 -13 -57 -13 -224 0 -121 4 -222 8 -225 5 -3 148 22 318 55 170 33 401
78 513 99 113 22 208 43 213 48 12 12 5 505 -7 507 -5 1 -136 -30 -290 -70z"/>
        <path d="M2730 2765 c-74 -13 -304 -51 -510 -84 -206 -34 -378 -65 -382 -69
-5 -5 -7 -105 -6 -223 l3 -214 30 2 c33 3 200 18 685 64 179 16 328 33 333 38
11 11 4 504 -8 506 -5 2 -71 -8 -145 -20z"/>
        <path d="M2620 1920 c-129 -10 -350 -26 -490 -35 -140 -9 -265 -18 -278 -21
l-22 -4 2 -233 3 -232 525 0 525 0 0 270 c0 232 -2 270 -15 271 -8 1 -121 -6
-250 -16z"/>
    </g>
</svg>
